<svg width="2401" height="2918" viewBox="0 0 2401 2918" fill="none" xmlns="http://www.w3.org/2000/svg">
<style type="text/css">
        #black-line { 
            stroke-dasharray: 9588.01px;
            stroke-dashoffset: 9588.01px;
            animation: x 14s linear forwards ; 
            }

        @keyframes x {

            21%{
                stroke-dashoffset: 7900px;
            }             
            31%{
                stroke-dashoffset: 7450px;
                }
            100%{
                stroke-dashoffset: 0;
                }

        }
    </style>
<path id="black-line" d="M2398.94 515.5C2305.44 277.5 1642.44 14 1345.44 27C1107.84 37.4 935.48 55.3333 873.48 63H834.439V36L849.939 2H864.439L851.939 36H862.439V63C862.939 66.5 860.5 63 830.5 63C799.838 63 797.939 65.5 797.939 63V36L813.439 2H825.939L814.939 36H825.939V63H754.439C448.939 66.3333 -124.261 136.5 26.9387 390.5C215.939 708 452.939 422.5 754.439 515.5C1055.94 608.5 698.939 873.5 921.939 970.5C1144.94 1067.5 1821.94 632.5 1850.94 816C1879.94 999.5 1735.94 1572 1328.94 1627C921.939 1682 286.939 1338 276.439 1800C265.939 2262 877.439 2028.5 858.939 2325C844.139 2562.2 348.772 2817.5 102.939 2915.5" stroke="black" stroke-width="4"/>
</svg>
